<?xml version="1.0" encoding="utf-8" standalone="no"?>
<!DOCTYPE svg PUBLIC "-//W3C//DTD SVG 1.1//EN"
  "http://www.w3.org/Graphics/SVG/1.1/DTD/svg11.dtd">
<svg xmlns:xlink="http://www.w3.org/1999/xlink" width="856.8pt" height="465.832182pt" viewBox="0 0 856.8 465.832182" xmlns="http://www.w3.org/2000/svg" version="1.1">
 <metadata>
  <rdf:RDF xmlns:dc="http://purl.org/dc/elements/1.1/" xmlns:cc="http://creativecommons.org/ns#" xmlns:rdf="http://www.w3.org/1999/02/22-rdf-syntax-ns#">
   <cc:Work>
    <dc:type rdf:resource="http://purl.org/dc/dcmitype/StillImage"/>
    <dc:date>2026-09-02T14:32:24.073040</dc:date>
    <dc:format>image/svg+xml</dc:format>
    <dc:creator>
     <cc:Agent>
      <dc:title>Matplotlib v3.11.1, https://matplotlib.org/</dc:title>
     </cc:Agent>
    </dc:creator>
   </cc:Work>
  </rdf:RDF>
 </metadata>
 <defs>
  <style type="text/css">*{stroke-linejoin: round; stroke-linecap: butt}</style>
 </defs>
 <g id="figure_1">
  <g id="patch_1">
   <path d="M 0 465.832182 
L 856.8 465.832182 
L 856.8 0 
L 0 0 
z
" style="fill: #ffffff"/>
  </g>
  <g id="axes_1">
   <g id="patch_2">
    <path d="M 57.881719 392.73394 
L 849.6 392.73394 
L 849.6 23.54976 
L 57.881719 23.54976 
z
" style="fill: #ffffff"/>
   </g>
   <g id="matplotlib.axis_1">
    <g id="xtick_1">
     <g id="line2d_1">
      <path d="M 140.929091 392.73394 
L 140.929091 23.54976 
" clip-path="url(#p68a0d297ce)" style="fill: none; stroke: #cccccc; stroke-linecap: round"/>
     </g>
     <g id="text_1">
      <text style="font-size: 11px; font-family: 'Arial', 'DejaVu Sans', 'Liberation Sans', 'Bitstream Vera Sans', sans-serif; text-anchor: middle; fill: #262626" x="140.929091" y="410.242241" transform="rotate(-0 140.929091 410.242241)">1900</text>
     </g>
    </g>
    <g id="xtick_2">
     <g id="line2d_2">
      <path d="M 251.65892 392.73394 
L 251.65892 23.54976 
" clip-path="url(#p68a0d297ce)" style="fill: none; stroke: #cccccc; stroke-linecap: round"/>
     </g>
     <g id="text_2">
      <text style="font-size: 11px; font-family: 'Arial', 'DejaVu Sans', 'Liberation Sans', 'Bitstream Vera Sans', sans-serif; text-anchor: middle; fill: #262626" x="251.65892" y="410.242241" transform="rotate(-0 251.65892 410.242241)">1920</text>
     </g>
    </g>
    <g id="xtick_3">
     <g id="line2d_3">
      <path d="M 362.38875 392.73394 
L 362.38875 23.54976 
" clip-path="url(#p68a0d297ce)" style="fill: none; stroke: #cccccc; stroke-linecap: round"/>
     </g>
     <g id="text_3">
      <text style="font-size: 11px; font-family: 'Arial', 'DejaVu Sans', 'Liberation Sans', 'Bitstream Vera Sans', sans-serif; text-anchor: middle; fill: #262626" x="362.38875" y="410.242241" transform="rotate(-0 362.38875 410.242241)">1940</text>
     </g>
    </g>
    <g id="xtick_4">
     <g id="line2d_4">
      <path d="M 473.11858 392.73394 
L 473.11858 23.54976 
" clip-path="url(#p68a0d297ce)" style="fill: none; stroke: #cccccc; stroke-linecap: round"/>
     </g>
     <g id="text_4">
      <text style="font-size: 11px; font-family: 'Arial', 'DejaVu Sans', 'Liberation Sans', 'Bitstream Vera Sans', sans-serif; text-anchor: middle; fill: #262626" x="473.11858" y="410.242241" transform="rotate(-0 473.11858 410.242241)">1960</text>
     </g>
    </g>
    <g id="xtick_5">
     <g id="line2d_5">
      <path d="M 583.848409 392.73394 
L 583.848409 23.54976 
" clip-path="url(#p68a0d297ce)" style="fill: none; stroke: #cccccc; stroke-linecap: round"/>
     </g>
     <g id="text_5">
      <text style="font-size: 11px; font-family: 'Arial', 'DejaVu Sans', 'Liberation Sans', 'Bitstream Vera Sans', sans-serif; text-anchor: middle; fill: #262626" x="583.848409" y="410.242241" transform="rotate(-0 583.848409 410.242241)">1980</text>
     </g>
    </g>
    <g id="xtick_6">
     <g id="line2d_6">
      <path d="M 694.578239 392.73394 
L 694.578239 23.54976 
" clip-path="url(#p68a0d297ce)" style="fill: none; stroke: #cccccc; stroke-linecap: round"/>
     </g>
     <g id="text_6">
      <text style="font-size: 11px; font-family: 'Arial', 'DejaVu Sans', 'Liberation Sans', 'Bitstream Vera Sans', sans-serif; text-anchor: middle; fill: #262626" x="694.578239" y="410.242241" transform="rotate(-0 694.578239 410.242241)">2000</text>
     </g>
    </g>
    <g id="xtick_7">
     <g id="line2d_7">
      <path d="M 805.308068 392.73394 
L 805.308068 23.54976 
" clip-path="url(#p68a0d297ce)" style="fill: none; stroke: #cccccc; stroke-linecap: round"/>
     </g>
     <g id="text_7">
      <text style="font-size: 11px; font-family: 'Arial', 'DejaVu Sans', 'Liberation Sans', 'Bitstream Vera Sans', sans-serif; text-anchor: middle; fill: #262626" x="805.308068" y="410.242241" transform="rotate(-0 805.308068 410.242241)">2020</text>
     </g>
    </g>
    <g id="text_8">
     <text style="font-size: 12px; font-family: 'Arial', 'DejaVu Sans', 'Liberation Sans', 'Bitstream Vera Sans', sans-serif; text-anchor: middle; fill: #262626" x="453.740859" y="425.29351" transform="rotate(-0 453.740859 425.29351)">Period end year</text>
    </g>
   </g>
   <g id="matplotlib.axis_2">
    <g id="ytick_1">
     <g id="line2d_8">
      <path d="M 57.881719 376.232503 
L 849.6 376.232503 
" clip-path="url(#p68a0d297ce)" style="fill: none; stroke: #cccccc; stroke-linecap: round"/>
     </g>
     <g id="text_9">
      <text style="font-size: 11px; font-family: 'Arial', 'DejaVu Sans', 'Liberation Sans', 'Bitstream Vera Sans', sans-serif; text-anchor: end; fill: #262626" x="48.381719" y="380.236653" transform="rotate(-0 48.381719 380.236653)">7.0</text>
     </g>
    </g>
    <g id="ytick_2">
     <g id="line2d_9">
      <path d="M 57.881719 329.706964 
L 849.6 329.706964 
" clip-path="url(#p68a0d297ce)" style="fill: none; stroke: #cccccc; stroke-linecap: round"/>
     </g>
     <g id="text_10">
      <text style="font-size: 11px; font-family: 'Arial', 'DejaVu Sans', 'Liberation Sans', 'Bitstream Vera Sans', sans-serif; text-anchor: end; fill: #262626" x="48.381719" y="333.711114" transform="rotate(-0 48.381719 333.711114)">7.5</text>
     </g>
    </g>
    <g id="ytick_3">
     <g id="line2d_10">
      <path d="M 57.881719 283.181425 
L 849.6 283.181425 
" clip-path="url(#p68a0d297ce)" style="fill: none; stroke: #cccccc; stroke-linecap: round"/>
     </g>
     <g id="text_11">
      <text style="font-size: 11px; font-family: 'Arial', 'DejaVu Sans', 'Liberation Sans', 'Bitstream Vera Sans', sans-serif; text-anchor: end; fill: #262626" x="48.381719" y="287.185575" transform="rotate(-0 48.381719 287.185575)">8.0</text>
     </g>
    </g>
    <g id="ytick_4">
     <g id="line2d_11">
      <path d="M 57.881719 236.655886 
L 849.6 236.655886 
" clip-path="url(#p68a0d297ce)" style="fill: none; stroke: #cccccc; stroke-linecap: round"/>
     </g>
     <g id="text_12">
      <text style="font-size: 11px; font-family: 'Arial', 'DejaVu Sans', 'Liberation Sans', 'Bitstream Vera Sans', sans-serif; text-anchor: end; fill: #262626" x="48.381719" y="240.660037" transform="rotate(-0 48.381719 240.660037)">8.5</text>
     </g>
    </g>
    <g id="ytick_5">
     <g id="line2d_12">
      <path d="M 57.881719 190.130348 
L 849.6 190.130348 
" clip-path="url(#p68a0d297ce)" style="fill: none; stroke: #cccccc; stroke-linecap: round"/>
     </g>
     <g id="text_13">
      <text style="font-size: 11px; font-family: 'Arial', 'DejaVu Sans', 'Liberation Sans', 'Bitstream Vera Sans', sans-serif; text-anchor: end; fill: #262626" x="48.381719" y="194.134498" transform="rotate(-0 48.381719 194.134498)">9.0</text>
     </g>
    </g>
    <g id="ytick_6">
     <g id="line2d_13">
      <path d="M 57.881719 143.604809 
L 849.6 143.604809 
" clip-path="url(#p68a0d297ce)" style="fill: none; stroke: #cccccc; stroke-linecap: round"/>
     </g>
     <g id="text_14">
      <text style="font-size: 11px; font-family: 'Arial', 'DejaVu Sans', 'Liberation Sans', 'Bitstream Vera Sans', sans-serif; text-anchor: end; fill: #262626" x="48.381719" y="147.608959" transform="rotate(-0 48.381719 147.608959)">9.5</text>
     </g>
    </g>
    <g id="ytick_7">
     <g id="line2d_14">
      <path d="M 57.881719 97.07927 
L 849.6 97.07927 
" clip-path="url(#p68a0d297ce)" style="fill: none; stroke: #cccccc; stroke-linecap: round"/>
     </g>
     <g id="text_15">
      <text style="font-size: 11px; font-family: 'Arial', 'DejaVu Sans', 'Liberation Sans', 'Bitstream Vera Sans', sans-serif; text-anchor: end; fill: #262626" x="48.381719" y="101.08342" transform="rotate(-0 48.381719 101.08342)">10.0</text>
     </g>
    </g>
    <g id="ytick_8">
     <g id="line2d_15">
      <path d="M 57.881719 50.553731 
L 849.6 50.553731 
" clip-path="url(#p68a0d297ce)" style="fill: none; stroke: #cccccc; stroke-linecap: round"/>
     </g>
     <g id="text_16">
      <text style="font-size: 11px; font-family: 'Arial', 'DejaVu Sans', 'Liberation Sans', 'Bitstream Vera Sans', sans-serif; text-anchor: end; fill: #262626" x="48.381719" y="54.557882" transform="rotate(-0 48.381719 54.557882)">10.5</text>
     </g>
    </g>
    <g id="text_17">
     <text style="font-size: 12px; font-family: 'Arial', 'DejaVu Sans', 'Liberation Sans', 'Bitstream Vera Sans', sans-serif; text-anchor: middle; fill: #262626" x="20.449063" y="208.14185" transform="rotate(-90 20.449063 208.14185)">Mean temperature (°C)</text>
    </g>
   </g>
   <g id="FillBetweenPolyCollection_1"/>
   <g id="FillBetweenPolyCollection_2"/>
   <g id="line2d_16">
    <path d="M 57.881719 261.639463 
L 63.41821 349.183957 
L 68.954702 267.732397 
L 74.491193 375.952841 
L 80.027685 263.271044 
L 85.564176 257.382058 
L 91.100668 314.767805 
L 96.637159 302.554354 
L 102.173651 210.831026 
L 107.710142 215.011951 
L 113.246634 312.95777 
L 118.783125 177.291333 
L 124.319616 289.299852 
L 129.856108 218.479059 
L 135.392599 151.227349 
L 140.929091 230.61394 
L 146.465582 223.96015 
L 152.002074 282.900997 
L 157.538565 247.745535 
L 163.075057 263.198325 
L 168.611548 231.251276 
L 174.14804 293.378803 
L 179.684531 252.359849 
L 185.221023 246.799979 
L 190.757514 247.592575 
L 196.294006 245.960994 
L 201.830497 212.309645 
L 207.366989 166.61334 
L 212.90348 248.255404 
L 218.439972 158.085086 
L 223.976463 221.58926 
L 229.512955 264.545786 
L 235.049446 293.710218 
L 240.585938 226.611469 
L 246.122429 265.514467 
L 251.65892 234.672831 
L 257.195412 163.872098 
L 262.731903 222.710971 
L 268.268395 237.879572 
L 273.804886 284.02041 
L 279.341378 189.824426 
L 284.877869 227.809661 
L 290.414361 225.158342 
L 295.950852 230.274515 
L 301.487344 276.323688 
L 307.023835 218.275112 
L 312.560327 243.48813 
L 318.096818 247.105065 
L 323.63331 183.731493 
L 329.169801 214.272641 
L 334.706293 169.123748 
L 340.242784 250.181343 
L 345.779276 196.835124 
L 351.315767 211.289908 
L 356.852259 183.017676 
L 362.38875 234.698254 
L 367.925241 277.649347 
L 373.461733 227.707687 
L 378.998224 151.252843 
L 384.534716 206.223608 
L 390.071207 200.684634 
L 395.607699 193.215054 
L 401.14419 282.416622 
L 406.680682 146.909902 
L 412.217173 152.502021 
L 417.753665 132.540653 
L 423.290156 298.553973 
L 428.826648 184.613385 
L 434.363139 266.840126 
L 439.899631 213.839252 
L 445.436122 240.097501 
L 450.972614 225.95247 
L 456.509105 162.826867 
L 462.045597 240.632864 
L 467.582088 165.248744 
L 473.11858 139.384459 
L 478.655071 202.418188 
L 484.191563 269.924833 
L 489.728054 348.011258 
L 495.264545 236.401648 
L 500.801037 261.155088 
L 506.337528 243.819545 
L 511.87402 214.11968 
L 517.410511 256.003392 
L 522.947003 241.93303 
L 528.483494 230.817887 
L 534.019986 202.112267 
L 539.556477 217.613466 
L 545.092969 227.427259 
L 550.62946 202.775097 
L 556.165952 214.476588 
L 561.702443 172.638779 
L 567.238935 247.439614 
L 572.775426 240.785825 
L 578.311918 283.487346 
L 583.848409 231.52028 
L 589.384901 215.113924 
L 594.921392 226.152587 
L 600.457884 197.676407 
L 605.994375 198.520199 
L 611.530866 239.256218 
L 617.067358 284.813006 
L 622.603849 269.873846 
L 628.140341 196.613414 
L 633.676832 150.207611 
L 639.213324 121.145083 
L 644.749815 216.643531 
L 650.286307 148.664143 
L 655.822798 206.318686 
L 661.35929 245.298164 
L 666.895781 131.724863 
L 672.432273 206.528693 
L 677.968764 180.697773 
L 683.505256 105.976483 
L 689.041747 133.662365 
L 694.578239 146.477697 
L 700.11473 189.569492 
L 705.651222 133.866312 
L 711.187713 125.86137 
L 716.724205 147.926853 
L 722.260696 116.173861 
L 727.797188 134.529142 
L 733.333679 67.761807 
L 738.87017 134.884448 
L 744.406662 188.52426 
L 749.943153 202.775097 
L 755.479645 215.215898 
L 761.016136 124.562389 
L 766.552628 234.820358 
L 772.089119 87.085839 
L 777.625611 160.889365 
L 783.162102 112.892868 
L 788.698594 95.218248 
L 794.235085 134.988024 
L 799.771577 116.173861 
L 805.308068 117.011523 
L 810.84456 156.478999 
L 816.381051 71.611318 
L 821.917543 76.506059 
L 827.454034 69.774118 
L 832.990526 77.882705 
L 838.527017 40.330859 
L 838.527017 40.330859 
" clip-path="url(#p68a0d297ce)" style="fill: none; stroke: #4c72b0; stroke-opacity: 0.72; stroke-width: 1.1; stroke-linecap: round"/>
   </g>
   <g id="line2d_17">
    <path d="M 107.710142 281.832689 
L 113.246634 286.96452 
L 118.783125 269.775258 
L 124.319616 271.932003 
L 129.856108 256.184625 
L 135.392599 244.980256 
L 140.929091 242.303444 
L 146.465582 233.222678 
L 152.002074 231.257343 
L 157.538565 234.948794 
L 163.075057 239.767431 
L 168.611548 231.596782 
L 174.14804 243.205529 
L 179.684531 239.511528 
L 185.221023 242.34362 
L 190.757514 251.980143 
L 196.294006 253.514848 
L 201.830497 252.349798 
L 207.366989 240.721032 
L 212.90348 240.772019 
L 218.439972 230.260695 
L 223.976463 229.294494 
L 229.512955 226.411192 
L 235.049446 230.546229 
L 240.585938 228.527378 
L 246.122429 230.319567 
L 251.65892 229.190751 
L 257.195412 224.346996 
L 262.731903 229.956759 
L 268.268395 228.919176 
L 273.804886 241.512708 
L 279.341378 238.336225 
L 284.877869 234.662612 
L 290.414361 227.807425 
L 295.950852 228.173729 
L 301.487344 229.254651 
L 307.023835 227.614879 
L 312.560327 235.576483 
L 318.096818 238.015892 
L 323.63331 232.601084 
L 329.169801 225.626307 
L 334.706293 223.556239 
L 340.242784 225.793408 
L 345.779276 222.961086 
L 351.315767 221.062625 
L 356.852259 211.732024 
L 362.38875 213.374338 
L 367.925241 216.79046 
L 373.461733 214.850722 
L 378.998224 211.602857 
L 384.534716 210.797954 
L 390.071207 213.954042 
L 395.607699 208.257413 
L 401.14419 216.815563 
L 406.680682 210.377563 
L 412.217173 207.325997 
L 417.753665 197.110237 
L 423.290156 199.2007 
L 428.826648 194.891269 
L 434.363139 206.449998 
L 439.899631 207.211562 
L 445.436122 211.152849 
L 450.972614 214.426591 
L 456.509105 202.467615 
L 462.045597 211.839911 
L 467.582088 213.114584 
L 473.11858 213.798964 
L 478.655071 204.185386 
L 484.191563 212.716531 
L 489.728054 220.833644 
L 495.264545 223.089883 
L 500.801037 225.195642 
L 506.337528 226.982349 
L 511.87402 232.111631 
L 517.410511 233.648684 
L 522.947003 241.317112 
L 528.483494 250.460455 
L 534.019986 250.429863 
L 539.556477 245.198726 
L 545.092969 233.140326 
L 550.62946 229.777671 
L 556.165952 225.109821 
L 561.702443 217.991744 
L 567.238935 221.323738 
L 572.775426 219.801981 
L 578.311918 223.957413 
L 583.848409 224.027652 
L 589.384901 225.327818 
L 594.921392 226.18173 
L 600.457884 223.206645 
L 605.994375 222.781155 
L 611.530866 225.259118 
L 617.067358 236.476541 
L 622.603849 238.719964 
L 628.140341 234.302723 
L 633.676832 220.974749 
L 639.213324 209.93723 
L 644.749815 210.09019 
L 650.286307 202.341346 
L 655.822798 203.205574 
L 661.35929 207.88337 
L 666.895781 197.130235 
L 672.432273 189.301804 
L 683.505256 171.320503 
L 689.041747 169.665978 
L 694.578239 172.19924 
L 700.11473 169.491836 
L 705.651222 168.012053 
L 711.187713 159.966321 
L 716.724205 150.22919 
L 722.260696 148.67409 
L 727.797188 141.474135 
L 733.333679 130.180538 
L 738.87017 133.071335 
L 749.943153 144.187264 
L 755.479645 146.751905 
L 761.016136 145.821513 
L 766.552628 156.717411 
L 772.089119 150.63331 
L 777.625611 155.10486 
L 783.162102 152.941233 
L 788.698594 155.686877 
L 794.235085 155.697235 
L 799.771577 148.462195 
L 805.308068 139.885837 
L 810.84456 134.012147 
L 816.381051 128.71704 
L 821.917543 112.88561 
L 827.454034 111.154438 
L 832.990526 102.853772 
L 838.527017 95.597571 
L 838.527017 95.597571 
" clip-path="url(#p68a0d297ce)" style="fill: none; stroke: #dd8452; stroke-width: 2.8; stroke-linecap: round"/>
   </g>
   <g id="line2d_18">
    <path d="M 57.881719 151.201856 
L 849.6 151.201856 
" clip-path="url(#p68a0d297ce)" style="fill: none; stroke-dasharray: 1.1,1.815; stroke-dashoffset: 0; stroke: #4c72b0; stroke-width: 1.1"/>
   </g>
   <g id="patch_3">
    <path d="M 57.881719 392.73394 
L 57.881719 23.54976 
" style="fill: none; stroke: #cccccc; stroke-width: 1.25; stroke-linejoin: miter; stroke-linecap: square"/>
   </g>
   <g id="patch_4">
    <path d="M 57.881719 392.73394 
L 849.6 392.73394 
" style="fill: none; stroke: #cccccc; stroke-width: 1.25; stroke-linejoin: miter; stroke-linecap: square"/>
   </g>
   <g id="text_18">
    <text style="font-size: 8px; font-family: 'Arial', 'DejaVu Sans', 'Liberation Sans', 'Bitstream Vera Sans', sans-serif; fill: #262626" transform="translate(672.863679 41.05462)">Previous high</text>
    <text style="font-size: 8px; font-family: 'Arial', 'DejaVu Sans', 'Liberation Sans', 'Bitstream Vera Sans', sans-serif; fill: #262626" transform="translate(656.753679 49.761807)">2006–07: 10.32°C</text>
   </g>
   <g id="text_19">
    <text style="font-size: 8px; font-family: 'Arial', 'DejaVu Sans', 'Liberation Sans', 'Bitstream Vera Sans', sans-serif; fill: #262626" transform="translate(760.915767 13.623828)">2025–26 published</text>
    <text style="font-size: 8px; font-family: 'Arial', 'DejaVu Sans', 'Liberation Sans', 'Bitstream Vera Sans', sans-serif; fill: #262626" transform="translate(799.533267 22.330859)">10.61°C</text>
   </g>
   <g id="text_20">
    <text style="font-size: 12px; font-family: 'Arial', 'DejaVu Sans', 'Liberation Sans', 'Bitstream Vera Sans', sans-serif; text-anchor: middle; fill: #262626" x="453.740859" y="17.54976" transform="rotate(-0 453.740859 17.54976)">Wales August-to-July mean temperature, 1884–85 to 2025–26</text>
   </g>
   <g id="PathCollection_1">
    <defs>
     <path id="m6865f09e47" d="M 0 3.354102 
C 0.889518 3.354102 1.742724 3.000693 2.371708 2.371708 
C 3.000693 1.742724 3.354102 0.889518 3.354102 0 
C 3.354102 -0.889518 3.000693 -1.742724 2.371708 -2.371708 
C 1.742724 -3.000693 0.889518 -3.354102 0 -3.354102 
C -0.889518 -3.354102 -1.742724 -3.000693 -2.371708 -2.371708 
C -3.000693 -1.742724 -3.354102 -0.889518 -3.354102 0 
C -3.354102 0.889518 -3.000693 1.742724 -2.371708 2.371708 
C -1.742724 3.000693 -0.889518 3.354102 0 3.354102 
z
" style="stroke: #4c72b0"/>
    </defs>
    <g clip-path="url(#p68a0d297ce)">
     <use xlink:href="#m6865f09e47" x="733.333679" y="67.761807" style="fill: #4c72b0; stroke: #4c72b0"/>
    </g>
   </g>
   <g id="legend_1">
    <g id="line2d_19">
     <path d="M 67.781719 37.608061 
L 78.781719 37.608061 
L 89.781719 37.608061 
" style="fill: none; stroke: #4c72b0; stroke-opacity: 0.72; stroke-width: 1.1; stroke-linecap: round"/>
    </g>
    <g id="text_21">
     <text style="font-size: 11px; font-family: 'Arial', 'DejaVu Sans', 'Liberation Sans', 'Bitstream Vera Sans', sans-serif; text-anchor: start; fill: #262626" x="98.581719" y="41.458061" transform="rotate(-0 98.581719 41.458061)">Individual August-to-July periods</text>
    </g>
    <g id="line2d_20">
     <path d="M 67.781719 53.431518 
L 78.781719 53.431518 
L 89.781719 53.431518 
" style="fill: none; stroke: #dd8452; stroke-width: 2.8; stroke-linecap: round"/>
    </g>
    <g id="text_22">
     <text style="font-size: 11px; font-family: 'Arial', 'DejaVu Sans', 'Liberation Sans', 'Bitstream Vera Sans', sans-serif; text-anchor: start; fill: #262626" x="98.581719" y="57.281518" transform="rotate(-0 98.581719 57.281518)">Trailing 10-year average</text>
    </g>
    <g id="line2d_21">
     <path d="M 67.781719 69.254975 
L 78.781719 69.254975 
L 89.781719 69.254975 
" style="fill: none; stroke-dasharray: 1.1,1.815; stroke-dashoffset: 0; stroke: #4c72b0; stroke-width: 1.1"/>
    </g>
    <g id="text_23">
     <text style="font-size: 11px; font-family: 'Arial', 'DejaVu Sans', 'Liberation Sans', 'Bitstream Vera Sans', sans-serif; text-anchor: start; fill: #262626" x="98.581719" y="73.104975" transform="rotate(-0 98.581719 73.104975)">Derived 1991–2020 reference</text>
    </g>
   </g>
   <g id="PathCollection_2">
    <defs>
     <path id="m584d5069bf" d="M 0 4.1833 
C 1.109424 4.1833 2.173559 3.742521 2.95804 2.95804 
C 3.742521 2.173559 4.1833 1.109424 4.1833 0 
C 4.1833 -1.109424 3.742521 -2.173559 2.95804 -2.95804 
C 2.173559 -3.742521 1.109424 -4.1833 0 -4.1833 
C -1.109424 -4.1833 -2.173559 -3.742521 -2.95804 -2.95804 
C -3.742521 -2.173559 -4.1833 -1.109424 -4.1833 0 
C -4.1833 1.109424 -3.742521 2.173559 -2.95804 2.95804 
C -2.173559 3.742521 -1.109424 4.1833 0 4.1833 
z
" style="stroke: #dd8452"/>
    </defs>
    <g clip-path="url(#p68a0d297ce)">
     <use xlink:href="#m584d5069bf" x="838.527017" y="40.330859" style="fill: #dd8452; stroke: #dd8452"/>
    </g>
   </g>
  </g>
  <g id="text_24">
   <text style="font-size: 7px; font-family: 'Arial', 'DejaVu Sans', 'Liberation Sans', 'Bitstream Vera Sans', sans-serif; text-anchor: start; fill: #262626" x="7.2" y="457.158901" transform="rotate(-0 7.2 457.158901)">Source: Met Office Wales monthly HadUK-Grid areal series. Monthly means are weighted by calendar days. July 2026 = 17.8°C (published input).</text>
  </g>
 </g>
 <defs>
  <clipPath id="p68a0d297ce">
   <rect x="57.881719" y="23.54976" width="791.718281" height="369.18418"/>
  </clipPath>
 </defs>
</svg>
